<?xml version="1.0" encoding="utf-8"?>
<!-- Generator: Adobe Illustrator 17.0.2, SVG Export Plug-In . SVG Version: 6.00 Build 0)  -->
<!DOCTYPE svg PUBLIC "-//W3C//DTD SVG 1.1//EN" "http://www.w3.org/Graphics/SVG/1.1/DTD/svg11.dtd">
<svg version="1.1" id="Cook" xmlns="http://www.w3.org/2000/svg" xmlns:xlink="http://www.w3.org/1999/xlink" x="0px" y="0px"
	 width="530.029px" height="268.385px" viewBox="0 0 530.029 268.385" enable-background="new 0 0 530.029 268.385"
	 xml:space="preserve">
<g>
	<path fill="#657B83" d="M77.269,267.679c-31.019,0-59.598-15.398-71.266-44.988c-13.376-33.922-2.38-70.694,13.216-101.781
		c-7.136-0.23-17.009-0.373-17.743-9.736c-0.893-11.395,10.767-10.504,18.35-10.25c2.551,0.086,5.105,0.088,7.656,0.016
		c3.632-0.102,3.434-1.556,5.153-4.498c2.494-4.269,5.029-8.514,7.565-12.758c4.455-7.43,9.025-14.791,13.911-21.947
		C64.483,46.55,76.299,32.226,90.46,20.41c12.61-10.522,29.749-23.411,47.246-19.785c11.213,2.324,18.925,11.276,21.382,22.268
		c4.053,18.131-4.672,35.538-16.39,48.812c-23.866,27.033-60.168,42.321-95.274,47.484c-3.357,0.494-4.593-0.216-6.283,2.943
		c-1.223,2.286-2.421,4.585-3.589,6.9c-2.335,4.631-4.548,9.325-6.578,14.098c-4.284,10.072-7.799,20.546-9.641,31.357
		c-2.981,17.496-1.343,37.186,9.16,52.067c19.897,28.189,61.355,23.917,88.997,11.499c14.591-6.555,33.582-16.665,35.569-34.368
		c1.863-16.601-11.26-27.98-27.397-24.758c-14.181,2.831-25.429,17.29-33.218,28.502c-1.662,2.392-3.252,4.848-4.629,7.417
		c1.927,3.018,2.088,6.915,0.413,10.078c-3.352,6.332-12.906,7.538-18.189,3.02c-15.235-13.014,14.17-43.701,22.995-52.08
		c18.016-17.106,47.086-25.987,67.224-6.702c19.041,18.235,15.84,49.543-2.627,66.902
		C138.361,256.058,106.25,267.678,77.269,267.679C66.324,267.679,103.935,267.678,77.269,267.679z M131.888,19.994
		c-8.589,0-17.412,7.11-23.88,12.018c-7.752,5.883-14.79,12.663-21.207,19.97C74.581,65.897,64.727,81.599,55.269,97.461
		c22.966-4.99,45.633-14.729,63.503-30.234c7.701-6.682,15.632-14.909,19.273-24.607C140.411,36.316,142.722,19.994,131.888,19.994z
		"/>
	<path fill="#657B83" d="M454.098,144.697c16.648-7.941,31.048-21.486,43.361-34.963c11.337-12.41,22.038-26.396,28.305-42.115
		c5.804-14.559,6.102-32.733-1.706-46.695C516.503,7.415,501.708,3.31,487.672,8.977c-33.402,13.487-39.348,53.903-48.54,84.279
		c-3.121,10.314-6.391,20.582-9.784,30.809c-1.747,5.267-3.527,10.523-5.338,15.768c-4.707,3.295-9.364,6.663-14.094,9.925
		c-16.1,11.104-34.202,20.551-53.764,23.521c-6.117,0.929-12.27,0.146-18.33,0.878c-8.279,0.999-16.606,1.782-24.909,2.663
		c-16.169,1.717-32.474,3.671-48.736,2.063c-7.905-0.782-15.314-3.64-23.417-3.859c-8.048-0.218-16.152,0.977-23.685,3.864
		c-14.463,5.543-25.333,17.431-32.557,30.863c-6.849,12.734-10.776,29.027-2.486,42.083c8.753,13.786,26.385,18.977,41.718,15.111
		c26.695-6.73,55.741-38.567,52.772-67.447c7.396-0.006,14.783-0.471,22.147-1.135c-9.409,13.164-17.327,31.808-13.181,48.217
		c4.252,16.827,23.001,23.793,38.885,21.233c29.843-4.808,64.259-47.082,46.435-77.232c14.676-3.989,28.797-10.335,41.623-18.476
		c-1.746,4.69-19.582,45.269-23.504,55.869c-3.682,9.953-8.628,18.2-10.593,28.631c-0.353,2.556,0.003,5.061,1.425,7.265
		c3.586,5.571,10.834,6.094,15.091,0.964c3.945-4.741,18.141-42.283,22.871-54.025c9.079,17.699,19.227,41.081,37.829,50.15
		c16.973,8.275,39.127,9.993,55.594-0.438c7.204-4.563,12.808-16.328,1.384-20.363c-5.207-1.839-8.346,1.203-12.463,3.7
		c-3.923,2.379-8.502,3.499-13.049,3.791c-9.031,0.581-18.506-1.831-26.211-6.564c-8.228-5.054-12.999-14.868-17.813-22.947
		c19.298-3.135,44.931-17.544,48.557-38.483c1.957-11.303-3.415-23.794-14.372-28.215c-12.134-4.896-26.499-0.106-37.775,4.951
		C441.548,150.327,448.392,147.419,454.098,144.697C467.811,138.156,449.905,146.697,454.098,144.697z M462.727,83.935
		c4.442-15.498,7.908-32.77,18.292-45.611c4.39-5.428,11.885-11.995,19.323-11.995c6.668,0,8.683,9.494,9.301,14.532
		c2.037,16.612-7.47,31.213-17.207,43.821c-11.552,14.959-25.71,29.46-41.998,39.274C454.764,110.688,458.886,97.352,462.727,83.935
		C463.249,82.112,459.05,96.778,462.727,83.935z M256.471,205.914c-1.982,13.384-12.432,26.179-22.884,34.121
		c-5.79,4.399-12.996,8.303-20.457,8.273c-6.349-0.025-14.217-3.915-15.557-10.671c-2.528-12.747,9.574-29.519,19.538-36.345
		c7.126-4.882,15.795-6.646,24.327-6.205c4.611,0.239,9.187,1.074,13.622,2.346C257.006,199.695,256.878,203.163,256.471,205.914
		C254.417,219.784,257.202,200.973,256.471,205.914z M336.995,240.344c-9.013,7.284-33.957,14.602-32.454-4.487
		c1.122-14.252,9.78-27.521,20.744-36.128c7.757-6.089,25.335-9.343,29.301,3.262C358.795,216.366,346.641,232.551,336.995,240.344
		C331.035,245.161,349.677,230.097,336.995,240.344z M469.327,169.858c4.782,1.492,2.084,8.796,0.148,11.466
		c-3.182,4.391-7.865,7.693-12.505,10.379c-4.501,2.606-15.363,9.13-20.9,6.823c-2.523-1.706-3.733-7.621-4.899-10.297
		c-1.909-4.384,5.433-7.946,8.71-9.736C447.35,174.413,460.348,167.06,469.327,169.858
		C470.297,170.161,463.463,168.031,469.327,169.858z"/>
</g>
</svg>
