<?xml version="1.0" encoding="utf-8"?>
<!-- Generator: Adobe Illustrator 17.0.2, SVG Export Plug-In . SVG Version: 6.00 Build 0)  -->
<!DOCTYPE svg PUBLIC "-//W3C//DTD SVG 1.1//EN" "http://www.w3.org/Graphics/SVG/1.1/DTD/svg11.dtd">
<svg version="1.1" id="Cook" xmlns="http://www.w3.org/2000/svg" xmlns:xlink="http://www.w3.org/1999/xlink" x="0px" y="0px"
	 width="530.029px" height="268.385px" viewBox="0 0 530.029 268.385" enable-background="new 0 0 530.029 268.385"
	 xml:space="preserve">
<g>
	<path fill="#657B83" d="M77.269,267.679c-31.019,0-59.598-15.398-71.266-44.988c-13.376-33.922-2.38-70.694,13.216-101.781
		c-7.136-0.23-17.009-0.373-17.743-9.736c-0.893-11.395,10.767-10.504,18.35-10.25c2.551,0.086,5.105,0.088,7.656,0.016
		c3.632-0.102,3.434-1.556,5.153-4.498c2.494-4.269,5.029-8.514,7.565-12.758c4.455-7.43,9.025-14.791,13.911-21.947
		C64.483,46.55,76.299,32.226,90.46,20.41c12.61-10.522,29.749-23.411,47.246-19.785c11.213,2.324,18.925,11.276,21.382,22.268
		c4.053,18.131-4.672,35.538-16.39,48.812c-23.866,27.033-60.168,42.321-95.274,47.484c-3.357,0.494-4.593-0.216-6.283,2.943
		c-1.223,2.286-2.421,4.585-3.589,6.9c-2.335,4.631-4.548,9.325-6.578,14.098c-4.284,10.072-7.799,20.546-9.641,31.357
		c-2.981,17.496-1.343,37.186,9.16,52.067c19.897,28.189,61.355,23.917,88.997,11.499c14.591-6.555,33.582-16.665,35.569-34.368
		c1.863-16.601-11.26-27.98-27.397-24.758c-14.181,2.831-25.429,17.29-33.218,28.502c-1.662,2.392-3.252,4.848-4.629,7.417
		c1.927,3.018,2.088,6.915,0.413,10.078c-3.352,6.332-12.906,7.538-18.189,3.02c-15.235-13.014,14.17-43.701,22.995-52.08
		c18.016-17.106,47.086-25.987,67.224-6.702c19.041,18.235,15.84,49.543-2.627,66.902
		C138.361,256.058,106.25,267.678,77.269,267.679C66.324,267.679,103.935,267.678,77.269,267.679z M131.888,19.994
		c-8.589,0-17.412,7.11-23.88,12.018c-7.752,5.883-14.79,12.663-21.207,19.97C74.581,65.897,64.727,81.599,55.269,97.461
		c22.966-4.99,45.633-14.729,63.503-30.234c7.701-6.682,15.632-14.909,19.273-24.607C140.411,36.316,142.722,19.994,131.888,19.994z
		"/>
	<path fill="#657B83" d="M454.098,144.697c16.648-7.941,31.048-21.486,43.361-34.963c11.337-12.41,22.038-26.396,28.305-42.115
		c5.804-14.559,6.102-32.733-1.706-46.695C516.503,7.415,501.708,3.31,487.672,8.977c-33.402,13.487-39.348,53.903-48.54,84.279
		c-3.121,10.314-6.391,20.582-9.784,30.809c-1.747,5.267-3.527,10.523-5.338,15.768c-4.707,3.295-9.364,6.663-14.094,9.925
		c-16.1,11.104-34.202,20.551-53.764,23.521c-6.117,0.929-12.27,0.146-18.33,0.878c-8.279,0.999-16.606,1.782-24.909,2.663
		c-16.169,1.717-32.474,3.671-48.736,2.063c-7.905-0.782-15.314-3.64-23.417-3.859c-8.048-0.218-16.152,0.977-23.685,3.864
		c-14.463,5.543-25.333,17.431-32.557,30.863c-6.849,12.734-10.776,29.027-2.486,42.083c8.753,13.786,26.385,18.977,41.718,15.111
		c26.695-6.73,55.741-38.567,52.772-67.447c7.396-0.006,14.783-0.471,22.147-1.135c-9.409,13.164-17.327,31.808-13.181,48.217
		c4.252,16.827,23.001,23.793,38.885,21.233c29.843-4.808,64.259-47.082,46.435-77.232c14.676-3.989,28.797-10.335,41.623-18.476
		c-1.746,4.69-19.582,45.269-23.504,55.869c-3.682,9.953-8.628,18.2-10.593,28.631c-0.353,2.556,0.003,5.061,1.425,7.265
		c3.586,5.571,10.834,6.094,15.091,0.964c3.945-4.741,18.141-42.283,22.871-54.025c9.079,17.699,19.227,41.081,37.829,50.15
		c16.973,8.275,39.127,9.993,55.594-0.438c7.204-4.563,12.808-16.328,1.384-20.363c-5.207-1.839-8.346,1.203-12.463,3.7
		c-3.923,2.379-8.502,3.499-13.049,3.791c-9.031,0.581-18.506-1.831-26.211-6.564c-8.228-5.054-12.999-14.868-17.813-22.947
		c19.298-3.135,44.931-17.544,48.557-38.483c1.957-11.303-3.415-23.794-14.372-28.215c-12.134-4.896-26.499-0.106-37.775,4.951
		C441.548,150.327,448.392,147.419,454.098,144.697C467.811,138.156,449.905,146.697,454.098,144.697z M462.727,83.935
		c4.442-15.498,7.908-32.77,18.292-45.611c4.39-5.428,11.885-11.995,19.323-11.995c6.668,0,8.683,9.494,9.301,14.532
		c2.037,16.612-7.47,31.213-17.207,43.821c-11.552,14.959-25.71,29.46-41.998,39.274C454.764,110.688,458.886,97.352,462.727,83.935
		C463.249,82.112,459.05,96.778,462.727,83.935z M256.471,205.914c-1.982,13.384-12.432,26.179-22.884,34.121
		c-5.79,4.399-12.996,8.303-20.457,8.273c-6.349-0.025-14.217-3.915-15.557-10.671c-2.528-12.747,9.574-29.519,19.538-36.345
		c7.126-4.882,15.795-6.646,24.327-6.205c4.611,0.239,9.187,1.074,13.622,2.346C257.006,199.695,256.878,203.163,256.471,205.914
		C254.417,219.784,257.202,200.973,256.471,205.914z M336.995,240.344c-9.013,7.284-33.957,14.602-32.454-4.487
		c1.122-14.252,9.78-27.521,20.744-36.128c7.757-6.089,25.335-9.343,29.301,3.262C358.795,216.366,346.641,232.551,336.995,240.344
		C331.035,245.161,349.677,230.097,336.995,240.344z M469.327,169.858c4.782,1.492,2.084,8.796,0.148,11.466
		c-3.182,4.391-7.865,7.693-12.505,10.379c-4.501,2.606-15.363,9.13-20.9,6.823c-2.523-1.706-3.733-7.621-4.899-10.297
		c-1.909-4.384,5.433-7.946,8.71-9.736C447.35,174.413,460.348,167.06,469.327,169.858
		C470.297,170.161,463.463,168.031,469.327,169.858z"/>
</g>
<g>
	<path fill="#657B83" d="M201.958,119.997c0.429,0,0.831-0.031,1.205-0.092c0.374-0.061,0.699-0.187,0.975-0.377
		s0.497-0.463,0.662-0.818c0.166-0.356,0.248-0.828,0.248-1.416V97.1c0-0.552-0.083-0.996-0.248-1.333
		c-0.166-0.337-0.389-0.598-0.671-0.782s-0.61-0.303-0.984-0.359c-0.374-0.055-0.769-0.083-1.186-0.083h-0.478v-1.582h7.117v24.332
		c0,0.589,0.08,1.061,0.239,1.416c0.159,0.356,0.38,0.628,0.662,0.818s0.61,0.316,0.984,0.377c0.374,0.061,0.775,0.092,1.205,0.092
		h0.478v1.582H201.48v-1.582H201.958z"/>
	<path fill="#657B83" d="M232.322,111.445c0,3.543-0.751,6.179-2.253,7.908c-1.502,1.729-3.7,2.593-6.593,2.593
		c-1.361,0-2.581-0.215-3.66-0.644c-1.079-0.429-1.995-1.079-2.749-1.949c-0.754-0.871-1.33-1.965-1.729-3.283
		c-0.398-1.318-0.598-2.86-0.598-4.625c0-3.519,0.745-6.137,2.235-7.853c1.49-1.717,3.694-2.575,6.612-2.575
		c1.361,0,2.581,0.212,3.66,0.634s1.995,1.067,2.749,1.931s1.33,1.949,1.729,3.255C232.123,108.144,232.322,109.679,232.322,111.445
		z M218.381,111.445c0,1.398,0.092,2.63,0.276,3.697c0.184,1.067,0.481,1.959,0.892,2.676s0.944,1.26,1.6,1.628
		c0.656,0.368,1.456,0.552,2.4,0.552c0.944,0,1.741-0.184,2.391-0.552c0.65-0.368,1.177-0.91,1.582-1.628s0.696-1.609,0.874-2.676
		c0.178-1.067,0.267-2.299,0.267-3.697c0-1.398-0.092-2.624-0.276-3.678c-0.184-1.054-0.478-1.934-0.883-2.639
		c-0.405-0.705-0.935-1.235-1.591-1.591c-0.656-0.356-1.456-0.533-2.4-0.533c-0.944,0-1.741,0.178-2.391,0.533
		c-0.65,0.356-1.177,0.886-1.582,1.591c-0.405,0.705-0.699,1.585-0.883,2.639S218.381,110.047,218.381,111.445z"/>
	<path fill="#657B83" d="M254.06,111.445c0,3.543-0.751,6.179-2.253,7.908c-1.502,1.729-3.7,2.593-6.593,2.593
		c-1.361,0-2.581-0.215-3.66-0.644c-1.079-0.429-1.995-1.079-2.749-1.949c-0.754-0.871-1.33-1.965-1.729-3.283
		c-0.398-1.318-0.598-2.86-0.598-4.625c0-3.519,0.745-6.137,2.235-7.853c1.49-1.717,3.694-2.575,6.612-2.575
		c1.361,0,2.581,0.212,3.66,0.634s1.995,1.067,2.749,1.931s1.33,1.949,1.729,3.255C253.861,108.144,254.06,109.679,254.06,111.445z
		 M240.12,111.445c0,1.398,0.092,2.63,0.276,3.697c0.184,1.067,0.481,1.959,0.892,2.676c0.411,0.717,0.944,1.26,1.6,1.628
		c0.656,0.368,1.456,0.552,2.4,0.552c0.944,0,1.741-0.184,2.391-0.552c0.65-0.368,1.177-0.91,1.582-1.628s0.696-1.609,0.874-2.676
		c0.178-1.067,0.267-2.299,0.267-3.697c0-1.398-0.092-2.624-0.276-3.678c-0.184-1.054-0.478-1.934-0.883-2.639
		c-0.405-0.705-0.935-1.235-1.591-1.591c-0.656-0.356-1.456-0.533-2.4-0.533c-0.944,0-1.741,0.178-2.391,0.533
		c-0.65,0.356-1.177,0.886-1.582,1.591c-0.405,0.705-0.699,1.585-0.883,2.639S240.12,110.047,240.12,111.445z"/>
	<path fill="#657B83" d="M268.902,109.459l5.021,7.448c0.65,1.005,1.297,1.772,1.94,2.299c0.644,0.527,1.389,0.791,2.235,0.791h0.11
		v1.582h-0.533c-1.091,0-1.989-0.034-2.694-0.101c-0.705-0.067-1.315-0.227-1.83-0.478c-0.515-0.251-0.987-0.619-1.416-1.103
		c-0.429-0.484-0.907-1.143-1.435-1.977l-3.77-5.904l-2.777,2.06v3.402c0,0.552,0.083,0.996,0.248,1.333s0.389,0.592,0.671,0.763
		c0.282,0.172,0.61,0.285,0.984,0.34c0.374,0.055,0.769,0.083,1.186,0.083h0.11v1.582h-10.134v-1.582h0.294
		c0.429,0,0.831-0.031,1.205-0.092s0.699-0.187,0.975-0.377c0.276-0.19,0.497-0.463,0.662-0.818
		c0.166-0.356,0.248-0.828,0.248-1.416V97.1c0-0.552-0.083-0.996-0.248-1.333c-0.165-0.337-0.389-0.598-0.671-0.782
		c-0.282-0.184-0.61-0.303-0.984-0.359c-0.374-0.055-0.769-0.083-1.186-0.083h-0.294v-1.582h6.933v14.529
		c0,0.343-0.006,0.782-0.018,1.315c-0.012,0.533-0.031,1.057-0.055,1.572c-0.025,0.589-0.049,1.208-0.074,1.858l4.708-5.15
		c0.405-0.454,0.739-0.852,1.002-1.195s0.475-0.644,0.634-0.901s0.27-0.487,0.331-0.69c0.061-0.202,0.092-0.395,0.092-0.579
		c0-0.319-0.15-0.524-0.451-0.616s-0.763-0.138-1.389-0.138v-1.582h8.313v1.582c-0.871,0-1.726,0.307-2.566,0.92
		c-0.84,0.613-1.75,1.477-2.731,2.593L268.902,109.459z"/>
	<path fill="#657B83" d="M285.472,119.997c0,0.797-0.11,1.569-0.331,2.317s-0.579,1.441-1.076,2.078
		c-0.497,0.638-1.134,1.211-1.913,1.72c-0.779,0.509-1.732,0.929-2.86,1.26v-1.582c1.238-0.392,2.146-0.871,2.722-1.435
		c0.576-0.564,0.864-1.214,0.864-1.949c0-0.245-0.067-0.451-0.202-0.616c-0.135-0.166-0.307-0.313-0.515-0.441
		s-0.429-0.254-0.662-0.377c-0.233-0.123-0.454-0.27-0.662-0.441c-0.208-0.172-0.38-0.383-0.515-0.634
		c-0.135-0.251-0.202-0.567-0.202-0.947c0-0.723,0.236-1.275,0.708-1.655c0.472-0.38,1.057-0.57,1.756-0.57
		c0.392,0,0.76,0.07,1.103,0.211s0.65,0.349,0.92,0.625c0.27,0.276,0.481,0.619,0.634,1.03S285.472,119.47,285.472,119.997z"/>
	<path fill="#657B83" d="M298.732,119.997c0.417,0,0.812-0.028,1.186-0.083c0.374-0.055,0.702-0.169,0.984-0.34
		c0.282-0.172,0.506-0.426,0.671-0.763c0.166-0.337,0.248-0.782,0.248-1.333v-11.936c0-0.552-0.083-0.996-0.248-1.333
		c-0.165-0.337-0.389-0.598-0.671-0.782c-0.282-0.184-0.61-0.307-0.984-0.368c-0.374-0.061-0.769-0.092-1.186-0.092h-0.11v-1.582
		h6.731v15.908c0,0.589,0.083,1.061,0.248,1.416c0.166,0.356,0.386,0.628,0.662,0.818c0.276,0.19,0.604,0.316,0.984,0.377
		c0.38,0.061,0.779,0.092,1.195,0.092h0.497v1.582h-10.704v-1.582H298.732z M301.289,95.279c0-0.441,0.055-0.809,0.166-1.103
		s0.264-0.533,0.46-0.717c0.196-0.184,0.423-0.313,0.68-0.386c0.257-0.074,0.539-0.11,0.846-0.11c0.294,0,0.57,0.037,0.828,0.11
		c0.257,0.074,0.481,0.202,0.671,0.386c0.19,0.184,0.343,0.423,0.46,0.717s0.175,0.662,0.175,1.103s-0.058,0.809-0.175,1.103
		s-0.27,0.533-0.46,0.717c-0.19,0.184-0.414,0.316-0.671,0.395s-0.533,0.12-0.828,0.12c-0.307,0-0.589-0.04-0.846-0.12
		s-0.484-0.212-0.68-0.395c-0.196-0.184-0.349-0.423-0.46-0.717S301.289,95.72,301.289,95.279z"/>
	<path fill="#657B83" d="M319.404,119.96c0.454,0,0.871-0.025,1.251-0.074c0.38-0.049,0.766-0.11,1.159-0.184v1.655
		c-0.159,0.074-0.368,0.147-0.625,0.221c-0.257,0.074-0.536,0.138-0.837,0.193c-0.3,0.055-0.616,0.098-0.947,0.129
		c-0.331,0.031-0.644,0.046-0.938,0.046c-0.956,0-1.778-0.101-2.464-0.303c-0.687-0.202-1.251-0.53-1.692-0.984
		c-0.441-0.454-0.769-1.054-0.984-1.802s-0.322-1.661-0.322-2.74v-12.58h-2.869v-1.508c0.454,0,0.953-0.092,1.499-0.276
		c0.546-0.184,1.027-0.49,1.444-0.92c0.429-0.466,0.775-1.021,1.039-1.664s0.493-1.45,0.69-2.418h1.729v4.635h4.929v2.152h-4.929
		v12.69c0,1.287,0.261,2.231,0.782,2.832C317.838,119.66,318.534,119.96,319.404,119.96z"/>
	<path fill="#657B83" d="M329.979,97.964c0,0.797-0.11,1.569-0.331,2.317c-0.221,0.748-0.579,1.441-1.076,2.078
		c-0.497,0.638-1.134,1.211-1.913,1.72c-0.779,0.509-1.732,0.929-2.86,1.26v-1.582c1.238-0.392,2.146-0.871,2.722-1.435
		c0.576-0.564,0.864-1.214,0.864-1.949c0-0.245-0.067-0.451-0.202-0.616c-0.135-0.166-0.307-0.313-0.515-0.441
		s-0.429-0.254-0.662-0.377c-0.233-0.123-0.454-0.27-0.662-0.441s-0.38-0.383-0.515-0.634c-0.135-0.251-0.202-0.567-0.202-0.947
		c0-0.723,0.236-1.275,0.708-1.655c0.472-0.38,1.057-0.57,1.756-0.57c0.392,0,0.76,0.07,1.103,0.211s0.65,0.349,0.92,0.625
		c0.27,0.276,0.481,0.619,0.634,1.03S329.979,97.437,329.979,97.964z"/>
	<path fill="#657B83" d="M338.126,121.946c-0.944,0-1.799-0.083-2.566-0.248c-0.766-0.166-1.419-0.417-1.959-0.754
		c-0.539-0.337-0.956-0.754-1.251-1.251c-0.294-0.497-0.441-1.076-0.441-1.738c0-0.503,0.083-0.923,0.248-1.26
		c0.165-0.337,0.368-0.604,0.607-0.8s0.497-0.334,0.772-0.414s0.524-0.12,0.745-0.12c0,0.662,0.067,1.281,0.202,1.858
		s0.362,1.082,0.68,1.517c0.319,0.435,0.739,0.779,1.26,1.03c0.521,0.251,1.162,0.377,1.922,0.377c0.674,0,1.269-0.083,1.784-0.248
		c0.515-0.166,0.947-0.398,1.297-0.699c0.349-0.3,0.616-0.662,0.8-1.085c0.184-0.423,0.276-0.886,0.276-1.389
		c0-0.466-0.07-0.867-0.211-1.205c-0.141-0.337-0.386-0.653-0.736-0.947s-0.825-0.595-1.425-0.901
		c-0.601-0.307-1.355-0.656-2.262-1.048c-0.969-0.429-1.812-0.843-2.529-1.241s-1.309-0.831-1.775-1.297
		c-0.466-0.466-0.815-0.996-1.048-1.591c-0.233-0.595-0.349-1.303-0.349-2.124c0-0.858,0.169-1.618,0.506-2.281
		c0.337-0.662,0.818-1.217,1.444-1.664s1.373-0.788,2.244-1.021c0.871-0.233,1.839-0.349,2.906-0.349
		c0.895,0,1.686,0.092,2.372,0.276s1.263,0.432,1.729,0.745c0.466,0.313,0.815,0.68,1.048,1.103
		c0.233,0.423,0.349,0.867,0.349,1.333c0,0.687-0.236,1.235-0.708,1.646s-1.143,0.616-2.014,0.616c0-1.263-0.261-2.244-0.782-2.943
		s-1.34-1.048-2.455-1.048c-0.638,0-1.183,0.074-1.637,0.221c-0.454,0.147-0.825,0.356-1.113,0.625s-0.5,0.589-0.634,0.956
		c-0.135,0.368-0.202,0.772-0.202,1.214c0,0.478,0.086,0.892,0.257,1.241c0.172,0.349,0.444,0.671,0.818,0.966
		c0.374,0.294,0.858,0.579,1.453,0.855c0.595,0.276,1.309,0.585,2.143,0.929c0.993,0.417,1.845,0.828,2.556,1.232
		c0.711,0.405,1.297,0.846,1.756,1.324s0.8,1.018,1.021,1.618c0.221,0.601,0.331,1.294,0.331,2.078c0,0.981-0.178,1.839-0.533,2.575
		c-0.356,0.736-0.858,1.352-1.508,1.848c-0.65,0.497-1.431,0.867-2.345,1.113C340.257,121.824,339.242,121.946,338.126,121.946z"/>
</g>
</svg>
