<?xml version="1.0" encoding="utf-8"?>
<!-- Generator: Adobe Illustrator 18.1.1, SVG Export Plug-In . SVG Version: 6.00 Build 0)  -->
<svg version="1.1" id="Cook" xmlns="http://www.w3.org/2000/svg" xmlns:xlink="http://www.w3.org/1999/xlink" x="0px" y="0px"
	 viewBox="-40 262.6 530 268.4" enable-background="new -40 262.6 530 268.4" xml:space="preserve">
<g>
	<path fill="#EEE9D4" d="M37.3,530.3c-31,0-59.6-15.4-71.3-45c-13.4-33.9-2.4-70.7,13.2-101.8c-7.1-0.2-17-0.4-17.7-9.7
		c-0.9-11.4,10.8-10.5,18.4-10.2c2.6,0.1,5.1,0.1,7.7,0c3.6-0.1,3.4-1.6,5.2-4.5c2.5-4.3,5-8.5,7.6-12.8c4.5-7.4,9-14.8,13.9-21.9
		c10.4-15.2,22.2-29.5,36.3-41.3c12.6-10.5,29.7-23.4,47.2-19.8c11.2,2.3,18.9,11.3,21.4,22.3c4.1,18.1-4.7,35.5-16.4,48.8
		c-23.9,27-60.2,42.3-95.3,47.5c-3.4,0.5-4.6-0.2-6.3,2.9c-1.2,2.3-2.4,4.6-3.6,6.9C-4.8,396.3-7,401-9,405.7
		c-4.3,10.1-7.8,20.5-9.6,31.4c-3,17.5-1.3,37.2,9.2,52.1c19.9,28.2,61.4,23.9,89,11.5c14.6-6.6,33.6-16.7,35.6-34.4
		c1.9-16.6-11.3-28-27.4-24.8c-14.2,2.8-25.4,17.3-33.2,28.5c-1.7,2.4-3.3,4.8-4.6,7.4c1.9,3,2.1,6.9,0.4,10.1
		c-3.4,6.3-12.9,7.5-18.2,3c-15.2-13,14.2-43.7,23-52.1c18-17.1,47.1-26,67.2-6.7c19,18.2,15.8,49.5-2.6,66.9
		C98.4,518.7,66.2,530.3,37.3,530.3C26.3,530.3,63.9,530.3,37.3,530.3z M91.9,282.6c-8.6,0-17.4,7.1-23.9,12
		c-7.8,5.9-14.8,12.7-21.2,20c-12.2,13.9-22.1,29.6-31.5,45.5c23-5,45.6-14.7,63.5-30.2c7.7-6.7,15.6-14.9,19.3-24.6
		C100.4,298.9,102.7,282.6,91.9,282.6z"/>
	<path fill="#EEE9D4" d="M414.1,407.3c16.6-7.9,31-21.5,43.4-35c11.3-12.4,22-26.4,28.3-42.1c5.8-14.6,6.1-32.7-1.7-46.7
		c-7.6-13.5-22.3-17.6-36.4-11.9c-33.4,13.5-39.3,53.9-48.5,84.3c-3.1,10.3-6.4,20.6-9.8,30.8c-1.7,5.3-3.5,10.5-5.3,15.8
		c-4.7,3.3-9.4,6.7-14.1,9.9c-16.1,11.1-34.2,20.6-53.8,23.5c-6.1,0.9-12.3,0.1-18.3,0.9c-8.3,1-16.6,1.8-24.9,2.7
		c-16.2,1.7-32.5,3.7-48.7,2.1c-7.9-0.8-15.3-3.6-23.4-3.9c-8-0.2-16.2,1-23.7,3.9c-14.5,5.5-25.3,17.4-32.6,30.9
		c-6.8,12.7-10.8,29-2.5,42.1c8.8,13.8,26.4,19,41.7,15.1c26.7-6.7,55.7-38.6,52.8-67.4c7.4,0,14.8-0.5,22.1-1.1
		c-9.4,13.2-17.3,31.8-13.2,48.2c4.3,16.8,23,23.8,38.9,21.2c29.8-4.8,64.3-47.1,46.4-77.2c14.7-4,28.8-10.3,41.6-18.5
		c-1.7,4.7-19.6,45.3-23.5,55.9c-3.7,10-8.6,18.2-10.6,28.6c-0.4,2.6,0,5.1,1.4,7.3c3.6,5.6,10.8,6.1,15.1,1
		c3.9-4.7,18.1-42.3,22.9-54c9.1,17.7,19.2,41.1,37.8,50.1c17,8.3,39.1,10,55.6-0.4c7.2-4.6,12.8-16.3,1.4-20.4
		c-5.2-1.8-8.3,1.2-12.5,3.7c-3.9,2.4-8.5,3.5-13,3.8c-9,0.6-18.5-1.8-26.2-6.6c-8.2-5.1-13-14.9-17.8-22.9
		c19.3-3.1,44.9-17.5,48.6-38.5c2-11.3-3.4-23.8-14.4-28.2c-12.1-4.9-26.5-0.1-37.8,5C401.5,412.9,408.4,410,414.1,407.3
		C427.8,400.8,409.9,409.3,414.1,407.3z M422.7,346.5c4.4-15.5,7.9-32.8,18.3-45.6c4.4-5.4,11.9-12,19.3-12c6.7,0,8.7,9.5,9.3,14.5
		c2,16.6-7.5,31.2-17.2,43.8c-11.6,15-25.7,29.5-42,39.3C414.8,373.3,418.9,360,422.7,346.5C423.2,344.7,419,359.4,422.7,346.5z
		 M216.5,468.5c-2,13.4-12.4,26.2-22.9,34.1c-5.8,4.4-13,8.3-20.5,8.3c-6.3,0-14.2-3.9-15.6-10.7c-2.5-12.7,9.6-29.5,19.5-36.3
		c7.1-4.9,15.8-6.6,24.3-6.2c4.6,0.2,9.2,1.1,13.6,2.3C217,462.3,216.9,465.8,216.5,468.5C214.4,482.4,217.2,463.6,216.5,468.5z
		 M297,503c-9,7.3-34,14.6-32.5-4.5c1.1-14.3,9.8-27.5,20.7-36.1c7.8-6.1,25.3-9.3,29.3,3.3C318.8,479,306.6,495.2,297,503
		C291,507.8,309.7,492.7,297,503z M429.3,432.5c4.8,1.5,2.1,8.8,0.1,11.5c-3.2,4.4-7.9,7.7-12.5,10.4c-4.5,2.6-15.4,9.1-20.9,6.8
		c-2.5-1.7-3.7-7.6-4.9-10.3c-1.9-4.4,5.4-7.9,8.7-9.7C407.4,437,420.3,429.7,429.3,432.5C430.3,432.8,423.5,430.6,429.3,432.5z"/>
</g>
</svg>
